<?xml version="1.0" encoding="UTF-8" standalone="no"?>
<svg
   width="280pt"
   height="44pt"
   viewBox="0 0 280 44"
   version="1.1"
   id="svg3"
   xmlns="http://www.w3.org/2000/svg"
   xmlns:svg="http://www.w3.org/2000/svg">
  <defs
     id="defs3" />
  <path
     fill-rule="nonzero"
     fill="rgb(13.729858%, 12.159729%, 12.548828%)"
     fill-opacity="1"
     d="M 119.421875 43.714844 C 130.839844 43.714844 136.523438 37.742188 136.523438 25.734375 L 136.523438 1.898438 L 125.570313 1.898438 L 125.570313 24.742188 C 125.570313 31.476563 123.871094 34.050781 119.421875 34.050781 C 114.96875 34.050781 113.269531 31.476563 113.269531 24.742188 L 113.269531 1.898438 L 102.320313 1.898438 L 102.320313 25.734375 C 102.320313 37.742188 108 43.714844 119.421875 43.714844 Z M 73.738281 43.015625 L 100.09375 43.015625 L 100.09375 35.105469 C 100.09375 34.050781 99.625 33.585938 98.570313 33.585938 L 84.691406 33.585938 L 84.691406 1.898438 L 73.738281 1.898438 Z M 53.007813 43.714844 C 62.554688 43.714844 68.292969 38.855469 68.292969 30.773438 C 68.292969 25.089844 65.714844 21.636719 59.449219 19 L 53.886719 16.65625 C 51.191406 15.488281 50.371094 14.667969 50.371094 13.144531 C 50.371094 11.328125 52.1875 10.097656 54.996094 10.097656 C 59.390625 10.097656 62.964844 12.265625 64.078125 12.265625 C 64.71875 12.265625 65.074219 11.972656 65.304688 11.386719 L 67.765625 4.359375 C 63.429688 2.191406 59.273438 1.199219 54.765625 1.199219 C 45.628906 1.199219 39.652344 6.058594 39.652344 13.261719 C 39.652344 18.882813 42.171875 22.574219 47.851563 25.089844 L 54.414063 28.019531 C 56.578125 28.957031 57.457031 29.953125 57.457031 31.417969 C 57.457031 33.644531 55.816406 34.757813 52.597656 34.757813 C 47.558594 34.757813 43.226563 32.472656 42.289063 32.472656 C 41.644531 32.472656 41.117188 32.882813 40.941406 33.46875 L 38.949219 40.789063 C 44.28125 42.839844 48.496094 43.714844 53.007813 43.714844 Z M 23.722656 1.898438 L 23.722656 17.652344 L 11.25 17.652344 L 11.25 1.898438 L 0.296875 1.898438 L 0.296875 43.015625 L 11.25 43.015625 L 11.25 27.082031 L 23.722656 27.082031 L 23.722656 43.015625 L 34.675781 43.015625 L 34.675781 1.898438 L 23.722656 1.898438 "
     id="path1" />
  <path
     fill-rule="nonzero"
     fill="rgb(13.729858%, 12.159729%, 12.548828%)"
     fill-opacity="1"
     d="M 210.1875 43.011719 L 212.164063 43.011719 C 212.648438 43.011719 212.835938 42.800781 212.835938 42.34375 L 212.835938 33.679688 C 213.742188 32.90625 215.054688 32.34375 216.015625 32.34375 C 217.433594 32.34375 218.074219 33.144531 218.074219 34.9375 L 218.074219 42.320313 C 218.074219 42.800781 218.289063 43.011719 218.742188 43.011719 L 220.722656 43.011719 C 221.179688 43.011719 221.363281 42.800781 221.363281 42.320313 L 221.363281 34.375 C 221.363281 31.195313 219.894531 29.535156 217.058594 29.535156 C 215.535156 29.535156 213.957031 30.125 212.675781 31.195313 L 212.648438 30.417969 C 212.621094 30.015625 212.40625 29.855469 211.980469 29.855469 L 210.214844 29.855469 C 209.757813 29.855469 209.546875 30.070313 209.546875 30.523438 L 209.546875 42.371094 C 209.546875 42.773438 209.785156 43.011719 210.1875 43.011719 Z M 200.933594 43.011719 L 202.914063 43.011719 C 203.339844 43.011719 203.554688 42.800781 203.554688 42.34375 L 203.554688 33.734375 C 204.195313 32.957031 205.214844 32.449219 206.148438 32.449219 C 206.363281 32.449219 206.605469 32.476563 206.898438 32.503906 C 207.21875 32.558594 207.378906 32.449219 207.433594 32.101563 L 207.671875 30.175781 C 207.699219 29.964844 207.671875 29.828125 207.566406 29.722656 C 207.460938 29.617188 207.085938 29.535156 206.683594 29.535156 C 205.398438 29.535156 204.410156 30.097656 203.394531 31.40625 L 203.367188 30.445313 C 203.367188 30.015625 203.152344 29.855469 202.699219 29.855469 L 200.960938 29.855469 C 200.480469 29.855469 200.265625 30.042969 200.265625 30.550781 L 200.265625 42.34375 C 200.265625 42.800781 200.480469 43.011719 200.933594 43.011719 Z M 188.980469 35.042969 C 189.222656 33.226563 190.425781 32.050781 192.003906 32.050781 C 193.472656 32.050781 194.464844 33.117188 194.515625 34.75 L 194.515625 35.042969 Z M 192.242188 43.335938 C 193.875 43.335938 195.640625 43.011719 196.816406 42.480469 C 197.191406 42.292969 197.296875 42.078125 197.191406 41.675781 L 196.816406 40.285156 C 196.734375 39.964844 196.523438 39.886719 196.121094 40.046875 C 194.996094 40.5 193.953125 40.714844 192.804688 40.714844 C 190.691406 40.714844 189.140625 39.324219 188.925781 37.183594 L 196.871094 37.183594 C 197.566406 37.183594 197.753906 37.023438 197.753906 36.382813 L 197.753906 35.980469 C 197.753906 31.996094 195.640625 29.535156 192.1875 29.535156 C 188.179688 29.535156 185.476563 32.289063 185.476563 36.382813 C 185.476563 40.6875 188.042969 43.335938 192.242188 43.335938 Z M 183.871094 40.605469 L 178.097656 40.605469 L 183.980469 32.074219 C 184.195313 31.78125 184.246094 31.515625 184.246094 31.195313 L 184.246094 30.417969 C 184.246094 30.125 184.140625 29.855469 183.632813 29.855469 L 175.046875 29.855469 C 174.699219 29.855469 174.539063 30.070313 174.539063 30.417969 L 174.539063 31.566406 C 174.539063 32.128906 174.644531 32.261719 175.152344 32.261719 L 180.101563 32.261719 L 174.324219 40.765625 C 174.085938 41.117188 174.058594 41.300781 174.058594 41.675781 L 174.058594 42.371094 C 174.058594 42.746094 174.21875 43.011719 174.699219 43.011719 L 183.898438 43.011719 C 184.21875 43.011719 184.40625 42.828125 184.40625 42.503906 L 184.40625 41.0625 C 184.40625 40.714844 184.195313 40.605469 183.871094 40.605469 Z M 164.378906 43.335938 C 165.875 43.335938 167.371094 42.746094 168.683594 41.675781 L 168.710938 42.480469 C 168.738281 42.851563 168.925781 43.011719 169.351563 43.011719 L 171.144531 43.011719 C 171.625 43.011719 171.8125 42.800781 171.8125 42.320313 L 171.8125 30.472656 C 171.8125 30.042969 171.597656 29.855469 171.117188 29.855469 L 169.191406 29.855469 C 168.738281 29.855469 168.523438 30.042969 168.523438 30.472656 L 168.523438 39.164063 C 167.585938 39.964844 166.304688 40.527344 165.367188 40.527344 C 163.976563 40.527344 163.359375 39.75 163.359375 37.90625 L 163.359375 30.472656 C 163.359375 30.042969 163.175781 29.855469 162.691406 29.855469 L 160.792969 29.855469 C 160.3125 29.855469 160.070313 30.070313 160.070313 30.472656 L 160.070313 38.46875 C 160.070313 41.648438 161.542969 43.335938 164.378906 43.335938 Z M 147.691406 43.011719 L 157.289063 43.011719 C 157.691406 43.011719 157.960938 42.851563 157.960938 42.371094 L 157.960938 40.742188 C 157.960938 40.339844 157.746094 40.097656 157.289063 40.097656 L 150.445313 40.097656 L 150.445313 25.203125 C 150.445313 24.667969 150.257813 24.480469 149.75 24.480469 L 147.582031 24.480469 C 147.15625 24.480469 146.941406 24.722656 146.941406 25.175781 L 146.941406 42.265625 C 146.941406 42.851563 147.207031 43.011719 147.691406 43.011719 "
     id="path2" />
  <path
     fill-rule="nonzero"
     fill="rgb(13.729858%, 12.159729%, 12.548828%)"
     fill-opacity="1"
     d="M 270.144531 12.464844 C 270.382813 10.644531 271.585938 9.46875 273.164063 9.46875 C 274.636719 9.46875 275.625 10.539063 275.679688 12.167969 L 275.679688 12.464844 Z M 273.40625 20.753906 C 275.035156 20.753906 276.800781 20.433594 277.976563 19.898438 C 278.351563 19.710938 278.460938 19.496094 278.351563 19.09375 L 277.976563 17.703125 C 277.898438 17.382813 277.683594 17.304688 277.28125 17.464844 C 276.160156 17.917969 275.117188 18.132813 273.96875 18.132813 C 271.855469 18.132813 270.304688 16.742188 270.089844 14.601563 L 278.03125 14.601563 C 278.726563 14.601563 278.914063 14.441406 278.914063 13.800781 L 278.914063 13.398438 C 278.914063 9.414063 276.800781 6.953125 273.351563 6.953125 C 269.339844 6.953125 266.640625 9.707031 266.640625 13.800781 C 266.640625 18.105469 269.207031 20.753906 273.40625 20.753906 Z M 261.425781 20.433594 L 263.511719 20.433594 C 263.886719 20.433594 264.101563 20.21875 264.101563 19.765625 L 264.101563 2.515625 C 264.101563 2.035156 263.859375 1.898438 263.429688 1.898438 L 261.53125 1.898438 C 261.105469 1.898438 260.808594 2.058594 260.808594 2.515625 L 260.808594 19.789063 C 260.808594 20.246094 261.050781 20.433594 261.425781 20.433594 Z M 250.167969 20.753906 C 251.664063 20.753906 253.160156 20.164063 254.472656 19.09375 L 254.5 19.898438 C 254.527344 20.273438 254.714844 20.433594 255.140625 20.433594 L 256.933594 20.433594 C 257.414063 20.433594 257.601563 20.21875 257.601563 19.738281 L 257.601563 7.890625 C 257.601563 7.460938 257.386719 7.277344 256.90625 7.277344 L 254.980469 7.277344 C 254.527344 7.277344 254.3125 7.460938 254.3125 7.890625 L 254.3125 16.582031 C 253.375 17.382813 252.09375 17.945313 251.15625 17.945313 C 249.765625 17.945313 249.148438 17.167969 249.148438 15.324219 L 249.148438 7.890625 C 249.148438 7.460938 248.964844 7.277344 248.480469 7.277344 L 246.582031 7.277344 C 246.101563 7.277344 245.859375 7.488281 245.859375 7.890625 L 245.859375 15.886719 C 245.859375 19.070313 247.332031 20.753906 250.167969 20.753906 Z M 231.660156 20.433594 L 233.746094 20.433594 C 234.121094 20.433594 234.335938 20.21875 234.335938 19.765625 L 234.335938 11.097656 C 235.191406 10.378906 236.527344 9.761719 237.597656 9.761719 C 239.230469 9.761719 239.628906 10.886719 239.628906 12.355469 L 239.628906 19.765625 C 239.628906 20.246094 239.84375 20.433594 240.324219 20.433594 L 242.226563 20.433594 C 242.707031 20.433594 242.921875 20.246094 242.921875 19.765625 L 242.921875 11.792969 C 242.921875 8.851563 241.664063 6.953125 238.613281 6.953125 C 237.195313 6.953125 235.484375 7.542969 234.335938 8.503906 L 234.335938 2.515625 C 234.335938 2.035156 234.09375 1.898438 233.667969 1.898438 L 231.769531 1.898438 C 231.339844 1.898438 231.046875 2.058594 231.046875 2.515625 L 231.046875 19.789063 C 231.046875 20.246094 231.285156 20.433594 231.660156 20.433594 Z M 224.414063 20.753906 C 225.9375 20.753906 227.113281 20.511719 228.34375 19.953125 C 228.746094 19.765625 228.800781 19.601563 228.664063 19.148438 L 228.292969 17.8125 C 228.210938 17.570313 228.023438 17.492188 227.703125 17.597656 C 226.605469 18.050781 225.886719 18.210938 224.867188 18.210938 C 222.648438 18.210938 221.339844 16.582031 221.339844 13.800781 C 221.339844 11.097656 222.703125 9.523438 225.003906 9.523438 C 225.964844 9.523438 226.847656 9.734375 227.597656 10.109375 C 227.917969 10.296875 228.132813 10.21875 228.210938 9.867188 L 228.558594 8.425781 C 228.640625 7.996094 228.585938 7.835938 228.292969 7.703125 C 227.222656 7.222656 225.9375 6.953125 224.65625 6.953125 C 220.535156 6.953125 217.941406 9.683594 217.941406 13.960938 C 217.941406 18.238281 220.320313 20.753906 224.414063 20.753906 Z M 210.9375 20.753906 C 214.144531 20.753906 216.257813 19.09375 216.257813 16.554688 C 216.257813 15.003906 215.320313 13.71875 213.691406 13.078125 L 211.230469 12.089844 C 210.292969 11.714844 209.945313 11.339844 209.945313 10.699219 C 209.945313 9.949219 210.613281 9.441406 211.605469 9.441406 C 212.726563 9.441406 213.878906 9.683594 214.546875 10.082031 C 214.839844 10.242188 215.082031 10.164063 215.1875 9.84375 L 215.667969 8.398438 C 215.777344 8.023438 215.722656 7.890625 215.375 7.730469 C 214.117188 7.195313 212.808594 6.925781 211.445313 6.925781 C 208.582031 6.925781 206.578125 8.503906 206.578125 10.753906 C 206.578125 12.4375 207.59375 13.773438 209.332031 14.414063 L 211.472656 15.21875 C 212.675781 15.671875 213.101563 16.101563 213.101563 16.824219 C 213.101563 17.703125 212.300781 18.265625 211.015625 18.265625 C 210.027344 18.265625 209.089844 18.027344 207.644531 17.410156 C 207.324219 17.277344 207.109375 17.355469 207.003906 17.675781 L 206.523438 19.175781 C 206.414063 19.46875 206.523438 19.683594 206.816406 19.816406 C 208.074219 20.433594 209.546875 20.753906 210.9375 20.753906 Z M 192.859375 20.433594 L 194.945313 20.433594 C 195.316406 20.433594 195.53125 20.21875 195.53125 19.765625 L 195.53125 11.097656 C 196.386719 10.378906 197.726563 9.761719 198.796875 9.761719 C 200.425781 9.761719 200.828125 10.886719 200.828125 12.355469 L 200.828125 19.765625 C 200.828125 20.246094 201.039063 20.433594 201.523438 20.433594 L 203.421875 20.433594 C 203.902344 20.433594 204.117188 20.246094 204.117188 19.765625 L 204.117188 11.792969 C 204.117188 8.851563 202.859375 6.953125 199.8125 6.953125 C 198.394531 6.953125 196.683594 7.542969 195.53125 8.503906 L 195.53125 2.515625 C 195.53125 2.035156 195.289063 1.898438 194.863281 1.898438 L 192.964844 1.898438 C 192.535156 1.898438 192.242188 2.058594 192.242188 2.515625 L 192.242188 19.789063 C 192.242188 20.246094 192.484375 20.433594 192.859375 20.433594 Z M 185.609375 20.753906 C 187.136719 20.753906 188.3125 20.511719 189.542969 19.953125 C 189.941406 19.765625 189.996094 19.601563 189.863281 19.148438 L 189.488281 17.8125 C 189.40625 17.570313 189.222656 17.492188 188.898438 17.597656 C 187.804688 18.050781 187.082031 18.210938 186.066406 18.210938 C 183.847656 18.210938 182.535156 16.582031 182.535156 13.800781 C 182.535156 11.097656 183.898438 9.523438 186.199219 9.523438 C 187.160156 9.523438 188.042969 9.734375 188.792969 10.109375 C 189.113281 10.296875 189.328125 10.21875 189.40625 9.867188 L 189.757813 8.425781 C 189.835938 7.996094 189.78125 7.835938 189.488281 7.703125 C 188.417969 7.222656 187.136719 6.953125 185.851563 6.953125 C 181.734375 6.953125 179.140625 9.683594 179.140625 13.960938 C 179.140625 18.238281 181.519531 20.753906 185.609375 20.753906 Z M 170.554688 18.1875 C 168.550781 18.1875 167.453125 16.609375 167.453125 13.746094 C 167.453125 11.074219 168.628906 9.523438 170.660156 9.523438 C 172.640625 9.523438 173.738281 11.046875 173.738281 13.828125 C 173.738281 16.582031 172.5625 18.1875 170.554688 18.1875 Z M 170.527344 20.753906 C 174.511719 20.753906 177.132813 18 177.132813 13.828125 C 177.132813 9.496094 174.753906 6.953125 170.6875 6.953125 C 166.679688 6.953125 164.058594 9.65625 164.058594 13.800781 C 164.058594 18.160156 166.464844 20.753906 170.527344 20.753906 Z M 147.691406 20.433594 L 149.777344 20.433594 C 150.230469 20.433594 150.445313 20.246094 150.445313 19.765625 L 150.445313 12.277344 L 158.039063 12.277344 L 158.039063 19.765625 C 158.039063 20.246094 158.253906 20.433594 158.761719 20.433594 L 160.902344 20.433594 C 161.355469 20.433594 161.542969 20.246094 161.542969 19.765625 L 161.542969 2.570313 C 161.542969 2.058594 161.328125 1.898438 160.902344 1.898438 L 158.761719 1.898438 C 158.308594 1.898438 158.039063 2.085938 158.039063 2.570313 L 158.039063 9.386719 L 150.445313 9.386719 L 150.445313 2.570313 C 150.445313 2.058594 150.203125 1.898438 149.777344 1.898438 L 147.691406 1.898438 C 147.261719 1.898438 146.941406 2.085938 146.941406 2.570313 L 146.941406 19.765625 C 146.941406 20.246094 147.183594 20.433594 147.691406 20.433594 "
     id="path3" />
</svg>
